# xmcd
#
# Track frame offsets: 
#        150
#        19052
#        41819
#        58371
#        73963
#        90625
#        108787
#        124394
#        146866
#        170218
#        189535
#        211727
#        227254
#        244526
#        276843
#
# Disc length: 3931 seconds
#
# Revision: 0
# Processed by: cddbd v1.5.1PL0 Copyright (c) Steve Scherf et al.
# Submitted via: ExactAudioCopy v0.95a5
#
DISCID=e10f590f
DTITLE=Lucinda Williams - Alternate - Car Wheels on a Gravel Road
DYEAR=1998
DGENRE=Country
TTITLE0=Right In Time
TTITLE1=Greenville
TTITLE2=Concrete and Barbed Wire
TTITLE3=I Lost It
TTITLE4=Drunken Angel
TTITLE5=Can't Let Go
TTITLE6=Metal Firecracker
TTITLE7=2 Kool 2 Be 4-Gotten
TTITLE8=Lake Charles
TTITLE9=Still I Long for Your Kiss
TTITLE10=Car Wheels On a Gravel Road
TTITLE11=Jackson
TTITLE12=Out of Touch
TTITLE13=Joy
TTITLE14=Down the Big Road Blues
EXTD=
EXTT0=
EXTT1=
EXTT2=
EXTT3=
EXTT4=
EXTT5=
EXTT6=
EXTT7=
EXTT8=
EXTT9=
EXTT10=
EXTT11=
EXTT12=
EXTT13=
EXTT14=
PLAYORDER=
